<svg width="33" height="30" viewBox="0 0 33 30" fill="none" xmlns="http://www.w3.org/2000/svg">
<path d="M9.50409 29.9998C6.98787 30.0161 4.56901 29.0181 2.78464 27.227C1.00027 25.4361 -0.00225003 23.0003 3.79202e-06 20.4605C0.00225762 17.9207 1.00906 15.4869 2.79656 13.6992L15.0784 1.33804C15.4136 1.0001 15.9566 1.0001 16.2917 1.33804C16.6266 1.67627 16.6266 2.22429 16.2917 2.56256L4.04402 14.9816C2.09126 16.9522 1.32867 19.8248 2.0435 22.5167C2.75804 25.209 4.84173 27.3118 7.50909 28.0332C10.1767 28.7547 13.0227 27.9848 14.9758 26.0142L29.6845 11.0995C30.7675 10.01 31.346 8.51102 31.2778 6.96922C31.2099 5.42771 30.5019 3.986 29.3276 2.99798C28.1529 2.00995 26.6208 1.56654 25.1059 1.77661C23.8535 1.96436 22.6982 2.56542 21.8206 3.48638L7.37502 18.1581C6.69825 18.8435 6.43496 19.841 6.68433 20.7751C6.93397 21.7091 7.65821 22.4381 8.5846 22.6869C9.51099 22.936 10.4985 22.6674 11.1753 21.9821L23.3314 9.65545C23.6665 9.31751 24.2095 9.31751 24.5447 9.65545C24.8795 9.99367 24.8795 10.5417 24.5447 10.88L12.4111 23.0679C11.6977 23.8092 10.7539 24.2812 9.73754 24.4053C8.72114 24.5295 7.69303 24.2979 6.82509 23.7495C5.70981 23.0195 4.98052 21.8202 4.84049 20.4862C4.70076 19.152 5.16481 17.8251 6.10401 16.8759L20.7902 2.11166C22.1866 0.703989 24.0971 -0.0586939 26.0695 0.00352993C28.0421 0.0657288 29.9015 0.947675 31.2079 2.44046C32.5146 3.93354 33.1519 5.90467 32.9693 7.88783C32.7651 9.65115 31.9551 11.2861 30.68 12.5089L16.177 27.1807C14.4131 28.9793 12.0118 29.9941 9.50409 29.9998Z" fill="white"/>
</svg>
