<svg width="16" height="16" viewBox="0 0 16 16" fill="none" xmlns="http://www.w3.org/2000/svg">
<path d="M6.28575 11.4286H4.57142V0.571429C4.57142 0.419876 4.51121 0.274531 4.40405 0.167368C4.29688 0.0602039 4.15153 2.98791e-09 3.99998 2.98791e-09H2.85709C2.70553 2.98791e-09 2.56018 0.0602039 2.45302 0.167368C2.34585 0.274531 2.28564 0.419876 2.28564 0.571429V11.4286H0.571313C0.0645135 11.4286 -0.191565 12.0443 0.168088 12.4039L3.02531 15.8325C3.13246 15.9396 3.27776 15.9997 3.42925 15.9997C3.58074 15.9997 3.72603 15.9396 3.83319 15.8325L6.69041 12.4039C7.04827 12.045 6.79362 11.4286 6.28575 11.4286ZM14.8574 9.14286H10.2859C10.1343 9.14286 9.98895 9.20306 9.88179 9.31022C9.77462 9.41739 9.71442 9.56273 9.71442 9.71429V10.8571C9.71442 11.0087 9.77462 11.154 9.88179 11.2612C9.98895 11.3684 10.1343 11.4286 10.2859 11.4286H12.2859L10.098 13.9446C9.97736 14.0519 9.8808 14.1834 9.81469 14.3307C9.74857 14.4779 9.7144 14.6375 9.71442 14.7989V15.4286C9.71442 15.5801 9.77462 15.7255 9.88179 15.8326C9.98895 15.9398 10.1343 16 10.2859 16H14.8574C15.009 16 15.1543 15.9398 15.2615 15.8326C15.3686 15.7255 15.4289 15.5801 15.4289 15.4286V14.2857C15.4289 14.1342 15.3686 13.9888 15.2615 13.8817C15.1543 13.7745 15.009 13.7143 14.8574 13.7143H12.8574L15.0453 11.1982C15.1659 11.091 15.2625 10.9594 15.3286 10.8122C15.3947 10.6649 15.4289 10.5053 15.4289 10.3439V9.71429C15.4289 9.56273 15.3686 9.41739 15.2615 9.31022C15.1543 9.20306 15.009 9.14286 14.8574 9.14286ZM15.9667 6.09357L13.8499 0.379286C13.8102 0.268273 13.7372 0.172234 13.6409 0.104332C13.5445 0.0364302 13.4295 -1.20481e-05 13.3117 2.98791e-09H11.8316C11.7137 -1.20481e-05 11.5987 0.0364302 11.5024 0.104332C11.406 0.172234 11.333 0.268273 11.2934 0.379286L9.17654 6.09357C9.14576 6.17978 9.13614 6.27213 9.1485 6.36283C9.16085 6.45354 9.19482 6.53995 9.24754 6.61478C9.30025 6.68962 9.37018 6.7507 9.45143 6.79288C9.53268 6.83506 9.62287 6.8571 9.71442 6.85714H10.6012C10.7221 6.85718 10.8399 6.8189 10.9376 6.7478C11.0353 6.67669 11.108 6.57643 11.1452 6.46143L11.303 6H13.8388L13.9963 6.46143C14.0336 6.57667 14.1064 6.67709 14.2045 6.74822C14.3025 6.81934 14.4206 6.85749 14.5417 6.85714H15.4289C15.5204 6.8571 15.6106 6.83506 15.6918 6.79288C15.7731 6.7507 15.843 6.68962 15.8957 6.61478C15.9485 6.53995 15.9824 6.45354 15.9948 6.36283C16.0071 6.27213 15.9975 6.17978 15.9667 6.09357ZM11.9863 4L12.5716 2.28571L13.157 4H11.9863Z" fill="white"/>
</svg>
