<svg width="22" height="22" viewBox="0 0 22 22" fill="none" xmlns="http://www.w3.org/2000/svg">
<path d="M8.59357 15.625H6.24982V0.78125C6.24982 0.57405 6.16751 0.375336 6.021 0.228823C5.87449 0.08231 5.67577 0 5.46857 0H3.90607C3.69887 0 3.50016 0.08231 3.35364 0.228823C3.20713 0.375336 3.12482 0.57405 3.12482 0.78125V15.625H0.781071C0.0881997 15.625 -0.261898 16.4668 0.229801 16.9585L4.13605 21.646C4.28255 21.7924 4.48119 21.8746 4.6883 21.8746C4.89541 21.8746 5.09405 21.7924 5.24054 21.646L9.14679 16.9585C9.63605 16.4678 9.28791 15.625 8.59357 15.625ZM19.5311 18.75H18.7498V13.2812C18.7498 13.074 18.6675 12.8753 18.521 12.7288C18.3745 12.5823 18.1758 12.5 17.9686 12.5H15.6248C15.48 12.5001 15.338 12.5405 15.2148 12.6166C15.0916 12.6928 14.992 12.8017 14.9271 12.9312L14.1458 14.4937C14.0861 14.6127 14.0579 14.7451 14.0637 14.8781C14.0696 15.0112 14.1094 15.1405 14.1793 15.2539C14.2492 15.3672 14.3469 15.4608 14.4632 15.5258C14.5795 15.5907 14.7104 15.6249 14.8436 15.625H15.6248V18.75H14.8436C14.6364 18.75 14.4377 18.8323 14.2911 18.9788C14.1446 19.1253 14.0623 19.324 14.0623 19.5312V21.0938C14.0623 21.301 14.1446 21.4997 14.2911 21.6462C14.4377 21.7927 14.6364 21.875 14.8436 21.875H19.5311C19.7383 21.875 19.937 21.7927 20.0835 21.6462C20.23 21.4997 20.3123 21.301 20.3123 21.0938V19.5312C20.3123 19.324 20.23 19.1253 20.0835 18.9788C19.937 18.8323 19.7383 18.75 19.5311 18.75ZM16.1214 0.14209C15.4849 0.316418 14.9037 0.651136 14.4336 1.11423C13.9634 1.57733 13.6198 2.15332 13.4359 2.78711C12.7391 5.27979 14.4705 7.56104 16.7967 7.79346C16.49 8.05221 16.147 8.2646 15.7786 8.42383C15.409 8.58984 15.2513 9.03271 15.3792 9.41699L15.8626 10.3936C16.0028 10.8149 16.4744 11.0522 16.8831 10.8774C19.7152 9.66797 21.0945 7.86914 21.0945 4.43213V3.90625C21.0936 1.40576 18.7313 -0.553711 16.1214 0.14209ZM17.1873 4.88281C16.9942 4.88281 16.8054 4.82554 16.6448 4.71823C16.4842 4.61093 16.359 4.45841 16.2851 4.27996C16.2112 4.10152 16.1918 3.90517 16.2295 3.71573C16.2672 3.5263 16.3602 3.35229 16.4968 3.21572C16.6334 3.07914 16.8074 2.98613 16.9968 2.94845C17.1862 2.91077 17.3826 2.93011 17.561 3.00402C17.7395 3.07794 17.892 3.20311 17.9993 3.3637C18.1066 3.5243 18.1639 3.7131 18.1639 3.90625C18.1639 4.16525 18.061 4.41364 17.8779 4.59678C17.6947 4.77992 17.4463 4.88281 17.1873 4.88281Z" fill="white"/>
</svg>
