<svg width="23" height="23" viewBox="0 0 23 23" fill="none" xmlns="http://www.w3.org/2000/svg">
<path d="M6.17411 0.878126C6.02761 0.731724 5.82897 0.649484 5.62186 0.649484C5.41475 0.649484 5.21611 0.731724 5.06961 0.878126L1.16336 5.56563C0.67313 6.05635 1.02127 6.89912 1.71561 6.89912H4.05936V21.7429C4.05936 21.9501 4.14167 22.1488 4.28818 22.2953C4.4347 22.4418 4.63341 22.5241 4.84061 22.5241H6.40311C6.61031 22.5241 6.80902 22.4418 6.95554 22.2953C7.10205 22.1488 7.18436 21.9501 7.18436 21.7429V6.89912H9.52811C10.222 6.89912 10.5721 6.05733 10.0804 5.56563L6.17411 0.878126ZM20.4656 19.3991H19.6844V13.9304C19.6844 13.7232 19.6021 13.5245 19.4555 13.3779C19.309 13.2314 19.1103 13.1491 18.9031 13.1491H16.5594C16.4145 13.1492 16.2726 13.1896 16.1494 13.2658C16.0261 13.3419 15.9265 13.4508 15.8616 13.5803L15.0804 15.1428C15.0207 15.2618 14.9924 15.3942 14.9983 15.5272C15.0041 15.6603 15.0439 15.7896 15.1138 15.903C15.1837 16.0163 15.2815 16.1099 15.3977 16.1749C15.514 16.2399 15.6449 16.274 15.7781 16.2741H16.5594V19.3991H15.7781C15.5709 19.3991 15.3722 19.4814 15.2257 19.6279C15.0792 19.7745 14.9969 19.9732 14.9969 20.1804V21.7429C14.9969 21.9501 15.0792 22.1488 15.2257 22.2953C15.3722 22.4418 15.5709 22.5241 15.7781 22.5241H20.4656C20.6728 22.5241 20.8715 22.4418 21.018 22.2953C21.1646 22.1488 21.2469 21.9501 21.2469 21.7429V20.1804C21.2469 19.9732 21.1646 19.7745 21.018 19.6279C20.8715 19.4814 20.6728 19.3991 20.4656 19.3991ZM17.0559 0.791212C16.4194 0.96554 15.8383 1.30026 15.3681 1.76336C14.8979 2.22645 14.5544 2.80244 14.3704 3.43623C13.6736 5.92891 15.4051 8.21016 17.7312 8.44258C17.4245 8.70133 17.0815 8.91372 16.7132 9.07295C16.3435 9.23897 16.1858 9.68184 16.3138 10.0661L16.7972 11.0427C16.9373 11.4641 17.409 11.7014 17.8177 11.5266C20.6497 10.3171 22.0291 8.51826 22.0291 5.08125V4.55537C22.0281 2.05488 19.6658 0.0954113 17.0559 0.791212ZM18.1219 5.53193C17.9287 5.53193 17.7399 5.47466 17.5793 5.36735C17.4187 5.26005 17.2935 5.10753 17.2196 4.92909C17.1457 4.75064 17.1264 4.55429 17.1641 4.36485C17.2017 4.17542 17.2948 4.00141 17.4313 3.86484C17.5679 3.72826 17.7419 3.63525 17.9313 3.59757C18.1208 3.55989 18.3171 3.57923 18.4956 3.65315C18.674 3.72706 18.8265 3.85223 18.9338 4.01282C19.0411 4.17342 19.0984 4.36223 19.0984 4.55537C19.0984 4.81437 18.9955 5.06276 18.8124 5.24591C18.6293 5.42905 18.3809 5.53193 18.1219 5.53193Z" fill="white"/>
</svg>
