<svg width="23" height="22" viewBox="0 0 23 22" fill="none" xmlns="http://www.w3.org/2000/svg">
<path d="M1.20182 6.36804H3.54557V21.2118C3.54557 21.419 3.62788 21.6177 3.77439 21.7642C3.9209 21.9107 4.11962 21.993 4.32682 21.993H5.88932C6.09652 21.993 6.29523 21.9107 6.44174 21.7642C6.58826 21.6177 6.67057 21.419 6.67057 21.2118V6.36804H9.01432C9.70816 6.36804 10.0583 5.52625 9.56656 5.03455L5.66031 0.347046C5.51381 0.200644 5.31518 0.118404 5.10807 0.118404C4.90095 0.118404 4.70232 0.200644 4.55582 0.347046L0.64957 5.03455C0.159336 5.52527 0.507481 6.36804 1.20182 6.36804ZM20.7331 12.618H14.4831C14.2759 12.618 14.0772 12.7004 13.9306 12.8469C13.7841 12.9934 13.7018 13.1921 13.7018 13.3993V14.9618C13.7018 15.169 13.7841 15.3677 13.9306 15.5142C14.0772 15.6607 14.2759 15.743 14.4831 15.743H17.2174L14.2262 19.183C14.0613 19.3296 13.9293 19.5095 13.8389 19.7108C13.7485 19.9121 13.7018 20.1303 13.7018 20.351V21.2118C13.7018 21.419 13.7841 21.6177 13.9306 21.7642C14.0772 21.9107 14.2759 21.993 14.4831 21.993H20.7331C20.9403 21.993 21.139 21.9107 21.2855 21.7642C21.432 21.6177 21.5143 21.419 21.5143 21.2118V19.6493C21.5143 19.4421 21.432 19.2434 21.2855 19.0969C21.139 18.9504 20.9403 18.868 20.7331 18.868H17.9987L20.9899 15.4281C21.1548 15.2815 21.2868 15.1016 21.3772 14.9003C21.4676 14.699 21.5143 14.4808 21.5143 14.2601V13.3993C21.5143 13.1921 21.432 12.9934 21.2855 12.8469C21.139 12.7004 20.9403 12.618 20.7331 12.618ZM22.2497 8.4491L19.3556 0.636597C19.3014 0.484821 19.2016 0.353519 19.0699 0.260684C18.9382 0.167849 18.7809 0.118026 18.6198 0.118042H16.5963C16.4352 0.118026 16.278 0.167849 16.1462 0.260684C16.0145 0.353519 15.9147 0.484821 15.8605 0.636597L12.9665 8.4491C12.9244 8.56696 12.9112 8.69322 12.9281 8.81723C12.945 8.94124 12.9914 9.05937 13.0635 9.16169C13.1356 9.26401 13.2312 9.34752 13.3423 9.40518C13.4534 9.46284 13.5767 9.49298 13.7018 9.49304H14.9142C15.0795 9.4931 15.2405 9.44076 15.3741 9.34355C15.5077 9.24633 15.6071 9.10926 15.6579 8.95203L15.8737 8.32117H19.3405L19.5558 8.95203C19.6067 9.10958 19.7064 9.24688 19.8404 9.34412C19.9744 9.44136 20.1359 9.49351 20.3014 9.49304H21.5143C21.6395 9.49298 21.7628 9.46284 21.8739 9.40518C21.9849 9.34752 22.0805 9.26401 22.1526 9.16169C22.2247 9.05937 22.2711 8.94124 22.288 8.81723C22.3049 8.69322 22.2918 8.56696 22.2497 8.4491ZM16.8078 5.58679L17.6081 3.24304L18.4084 5.58679H16.8078Z" fill="white"/>
</svg>
